<svg id="design-think" enable-background="new 0 0 300 300" height="512" viewBox="0 0 300 300" width="512" xmlns="http://www.w3.org/2000/svg" xmlns:xlink="http://www.w3.org/1999/xlink"><linearGradient id="SVGID_1_" gradientUnits="userSpaceOnUse" x1="57.275" x2="239.072" y1="228.881" y2="47.084"><stop offset="0" stop-color="#107eff"/><stop offset="1" stop-color="#8f16ff"/></linearGradient><g><path d="m257.169 191.265c0 2.209-1.791 4-4 4s-4-1.791-4-4 1.791-4 4-4 4 1.791 4 4zm-204-144c0-6.617 5.383-12 12-12s12 5.383 12 12-5.383 12-12 12-12-5.382-12-12zm8 0c0 2.207 1.795 4 4 4s4-1.793 4-4-1.795-4-4-4-4 1.793-4 4zm199.562 61.821c-.684 1.336-2.061 2.18-3.562 2.18h-19.954c1.016 4.935 1.749 9.946 1.987 14.992 1.193 25.242-7.072 49.52-23.273 68.359-4.816 5.598-7.469 12.781-7.469 20.23v51.875c0 2.211-1.791 4-4 4s-4-1.785-4-3.996v-51.879c0-9.363 3.34-18.402 9.404-25.449 14.861-17.281 22.443-39.57 21.346-62.766-.243-5.175-.997-10.329-2.131-15.367h-12.703c.692 2.537 1.115 5.179 1.154 7.91.172 12.473-6.961 24.07-18.168 29.543-1.354.66-2.193 1.832-2.193 3.059v11.488c0 6.617-5.383 12-12 12s-12-5.383-12-12v-11.488c0-10.473 6.002-19.906 15.662-24.621 2.898-1.418 4.744-4.422 4.699-7.652-.059-4.328-3.908-8.176-8.236-8.234-2.871-.098-4.82 1.242-5.994 2.402-1.609 1.586-2.494 3.703-2.494 5.957 0 6.617-5.383 12-12 12s-12-5.383-12-12c0-2.868.405-5.667 1.122-8.363h-40.758c-1.061 0-2.078-.422-2.828-1.172-7.311-7.312-9.848-20.434-1.969-28.312 3.369-3.369 7.881-5.22 12.619-5.343-1.216-6.342.638-13.155 5.565-18.021.179-.178.405-.262.606-.398.001-.001.002-.003.003-.004 4.568-4.57 11.018-6.762 17.564-6.176.669-3.009 1.847-5.848 3.397-8.469-19.69-.343-38.329 6.404-52.91 19.367-17.525 15.586-28.177 39.094-29.226 64.492-.035.867-.352 1.691-.889 2.355l-20.164 39.684c-.225.824-.121 1.703.291 2.449.24.43.797 1.191 1.854 1.434l18.109 4.16c1.689.387 2.936 1.82 3.088 3.547l4.518 51.25c.15 1.445 1.279 2.59 2.654 2.68l36.006-3.973c1.115-.121 2.258.238 3.105.996.848.762 1.332 1.844 1.332 2.98v31.934c0 2.211-1.791 4-4 4s-4-1.789-4-4v-27.469l-31.836 3.512c-.145.016-.291.023-.438.023-5.564 0-10.201-4.266-10.787-9.918l-4.268-48.418-15.277-3.508c-2.98-.688-5.553-2.637-7.059-5.355-1.547-2.789-1.834-6.125-.789-9.152.061-.172.133-.34.215-.504l20.393-40.133c1.396-27.137 12.967-52.25 31.85-69.043 17.412-15.484 40.049-23.031 63.701-21.23l1.173.096c5.344-4.3 12.033-6.533 19.163-6.342 8.113.227 15.818 3.586 21.695 9.465 1.744 1.742 3.277 3.676 4.582 5.77 8.586-3.086 18.562-.867 25.43 6 .48.48.941.984 1.389 1.516 7.988-2.34 16.928-.062 23.115 6.125 6.951 6.949 8.9 17.129 5.301 25.559.861.625 1.67 1.316 2.424 2.066 6.75 6.753 6.299 16.565 2.859 23.3zm-8.513-17.641c-1.074-1.074-2.344-1.941-3.768-2.582-.137-.062-.225-.187-.353-.262-.028 0-.051.016-.079.016-.008 0-.016 0-.023 0l-5.234-.031c-.016 0-.033 0-.049 0-2.049 0-3.977.793-5.436 2.23-1.471 1.453-2.287 3.391-2.299 5.457-.014 2.203-1.801 3.977-4 3.977-.008 0-.016 0-.023 0-2.209-.012-3.99-1.816-3.977-4.023.025-4.203 1.686-8.148 4.678-11.102 2.965-2.93 6.889-4.539 11.055-4.539h.098l5.234.031c.008 0 .015.005.024.005 2.365-5.48 1.044-12.188-3.574-16.806-4.637-4.633-11.539-5.984-17.191-3.359-1.805.844-3.949.23-5.039-1.438-.719-1.102-1.463-2.031-2.273-2.844-5.131-5.131-12.739-6.423-18.789-3.329-2.533 2.601-3.958 6.011-3.979 9.653-.023 3.738 1.41 7.262 4.039 9.922 1.553 1.574 1.537 4.105-.035 5.656-.779.773-1.795 1.156-2.811 1.156-1.031 0-2.062-.398-2.846-1.188-4.129-4.18-6.385-9.719-6.348-15.598.029-4.791 1.648-9.296 4.487-13.051-1.058-1.81-2.257-3.519-3.731-4.992-4.426-4.426-10.201-6.957-16.262-7.125-6.016-.242-11.52 1.988-15.605 6.078-3.594 3.594-5.68 8.242-6.035 13.445-.082 1.207-.707 2.312-1.701 3.008-.994.691-2.25.902-3.408.559-5.26-1.531-10.545-.297-14.143 3.301-3.022 3.022-4.383 7.256-3.9 11.536.467 2.147 1.498 4.197 3.152 5.874 4.652 4.707 12.26 4.746 16.971.102 1.57-1.559 4.102-1.535 5.656.031 1.553 1.574 1.537 4.105-.035 5.656-3.891 3.848-8.973 5.766-14.055 5.766-5.162 0-10.322-1.98-14.229-5.934-.53-.537-.932-1.146-1.389-1.725-4.023-1.208-8.206-.292-10.964 2.459-4.064 4.066-2.787 11.211.92 15.828h42.324c1.418-2.407 3.129-4.663 5.174-6.68 6.201-6.117 14.445-9.391 23.176-9.316 11.57.161 21.76 6.595 27.358 15.996h41.511c1.194-3.822.956-8.584-2.274-11.818zm-55.049 99.82c0 6.617-5.383 12-12 12s-12-5.383-12-12 5.383-12 12-12 12 5.383 12 12z" fill="url(#SVGID_1_)"/></g></svg>