<svg height="512" viewBox="0 0 512 512" width="512" xmlns="http://www.w3.org/2000/svg"><g id="Filled_outline" data-name="Filled outline"><circle cx="320" cy="192" fill="#348ed8" r="168"/><g fill="#5cc1ed"><circle cx="160" cy="144" r="24"/><circle cx="240" cy="104" r="24"/><circle cx="392" cy="296" r="24"/><circle cx="408" cy="192" r="24"/><circle cx="424" cy="64" r="24"/><circle cx="472" cy="264" r="24"/><circle cx="320" cy="240" r="24"/><circle cx="224" cy="192" r="24"/></g><rect fill="#85ccd5" height="224" rx="16" width="240" x="48" y="264"/><path d="m48 432v40a16 16 0 0 0 16 16h208a16 16 0 0 0 16-16v-168z" fill="#7fc6ce"/><path d="m296 488h-256a16 16 0 0 1 -16-16v-24h112l8 8h48l8-8h112v24a16 16 0 0 1 -16 16z" fill="#dfdfdd"/><rect fill="#78b9c1" height="32" rx="16" width="112" x="112" y="368"/><path d="m181.54 47.678-11.08-11.543a217.8 217.8 0 0 1 16.613-14.4l9.854 12.606a201.731 201.731 0 0 0 -15.387 13.337zm314.46 216.322a23.972 23.972 0 0 1 -28.235 23.618c-2.966 4.573-6.151 9.042-9.53 13.332a175.147 175.147 0 0 1 -138.235 67.05h-8v-105.376a24 24 0 0 1 0-45.248v-17.376h-65.376a24.12 24.12 0 0 1 -13.778 14.3c.615 8.263 1.566 16.448 2.864 24.41l-15.792 2.574c-1.4-8.6-2.417-17.452-3.065-26.374a24.111 24.111 0 0 1 -15.477-14.91h-41.155a159.8 159.8 0 0 0 6 36.346l-15.376 4.425a176.987 176.987 0 0 1 -4.563-77.094 23.983 23.983 0 0 1 13.08-43.661 174.92 174.92 0 0 1 10.7-20.215 176 176 0 0 1 149.938-83.801 175.106 175.106 0 0 1 93.1 26.627 23.987 23.987 0 0 1 34.048 27.684 176.221 176.221 0 0 1 40.468 175.489 23.95 23.95 0 0 1 8.384 18.2zm-37.426-152h-53.336a279.253 279.253 0 0 1 9.921 57.091 24.109 24.109 0 0 1 15.465 14.909h49.154a159.4 159.4 0 0 0 -21.204-72zm-50.574 72a8 8 0 1 0 8 8 8.009 8.009 0 0 0 -8-8zm8-120a8 8 0 1 0 8-8 8.009 8.009 0 0 0 -8 8zm-50.657-25.47c13.887 13.724 25.838 33.285 34.687 57.47h47.976q-4.816-6.411-10.28-12.329a23.99 23.99 0 0 1 -35.794-29.1 158.689 158.689 0 0 0 -36.589-16.041zm-37.343 57.47h54.9c-13.479-33.845-33.237-56.22-54.9-62.3zm0 88h57.376a24.12 24.12 0 0 1 13.78-14.3 264.889 264.889 0 0 0 -10.618-57.7h-60.538zm0 33.376a24 24 0 0 1 0 45.248v25.376h41.376a24.07 24.07 0 0 1 19.084-15.737 264.59 264.59 0 0 0 10.7-57.958 24.12 24.12 0 0 1 -13.784-14.305h-57.376zm64 70.624a8 8 0 1 0 8 8 8.009 8.009 0 0 0 -8-8zm-137.9-203.4a24.1 24.1 0 0 1 8.524 11.4h49.376v-63.8l-.146.006h-.022c-21.908 2.116-42.687 21.078-57.732 52.394zm-62.111 11.4h25.387a24.048 24.048 0 0 1 21.185-15.953c6.908-14.879 15.1-27.479 24.208-37.464a160.2 160.2 0 0 0 -70.78 53.417zm-31.989 56a8 8 0 1 0 -8-8 8.009 8.009 0 0 0 8 8zm56.845 17.089a287.241 287.241 0 0 1 7.282-47.109 24.086 24.086 0 0 1 -6.751-9.98h-35.959q-3.675 6.352-6.755 13.019a23.981 23.981 0 0 1 -12.854 42.906c-.8 5.316-1.341 10.687-1.608 16.075h41.176a24.114 24.114 0 0 1 15.469-14.911zm15.155 22.911a8 8 0 1 0 -8 8 8.009 8.009 0 0 0 8-8zm0-88a8 8 0 1 0 8-8 8.009 8.009 0 0 0 -8 8zm80 80v-72h-49.376a24.039 24.039 0 0 1 -22.624 16c-.289 0-.576-.012-.862-.022a272.045 272.045 0 0 0 -6.3 41.715 24.124 24.124 0 0 1 13.786 14.307zm16 56a8 8 0 1 0 -8 8 8.009 8.009 0 0 0 8-8zm44.4 69.83a23.933 23.933 0 0 1 -3.028-5.83h-41.372v46.463c16.371-4.631 31.8-18.701 44.4-40.633zm61.869-5.83h-19.645a23.976 23.976 0 0 1 -29.107 15.1 130.005 130.005 0 0 1 -20.031 26.361 158.879 158.879 0 0 0 68.783-41.461zm37.731-64c.225 0 .448.011.672.017a159.292 159.292 0 0 0 7.128-40.017h-49.176a24.11 24.11 0 0 1 -15.464 14.909 277.056 277.056 0 0 1 -10.913 60.462 24.129 24.129 0 0 1 10.377 12.629h33.365q3.059-4.077 5.852-8.334a23.981 23.981 0 0 1 18.159-39.666zm8 24a8 8 0 1 0 -8 8 8.009 8.009 0 0 0 8-8zm-424 16a8.009 8.009 0 0 1 8-8h208a8.009 8.009 0 0 1 8 8v144h16v-144a24.027 24.027 0 0 0 -24-24h-208a24.027 24.027 0 0 0 -24 24v16h16zm264 168v24a24.027 24.027 0 0 1 -24 24h-256a24.027 24.027 0 0 1 -24-24v-24a8 8 0 0 1 8-8h16v-128h16v128h80a8 8 0 0 1 5.657 2.343l5.656 5.657h41.374l5.656-5.657a8 8 0 0 1 5.657-2.343h112a8 8 0 0 1 8 8zm-16 8h-100.687l-5.656 5.657a8 8 0 0 1 -5.657 2.343h-48a8 8 0 0 1 -5.657-2.343l-5.656-5.657h-100.687v16a8.009 8.009 0 0 0 8 8h256a8.009 8.009 0 0 0 8-8zm-178.648-217.839a200.42 200.42 0 0 1 44.048-177.77l-12.042-10.534a216.424 216.424 0 0 0 -47.578 191.982zm194.648 153.839c-2.558 0-5.147-.049-7.7-.146l-.606 15.989c2.751.1 5.545.157 8.3.157a214.825 214.825 0 0 0 170.266-83.072l-12.606-9.856a198.917 198.917 0 0 1 -157.654 76.928zm-112-32a24 24 0 0 1 0 48h-80a24 24 0 0 1 0-48zm0 16h-80a8 8 0 0 0 0 16h80a8 8 0 0 0 0-16zm-136-88v16h16v-16zm32 0v16h16v-16zm32 0v16h16v-16zm128 32h-192v16h192z"/></g></svg>