<svg id="Capa_1" enable-background="new 0 0 512 512" height="512" viewBox="0 0 512 512" width="512" xmlns="http://www.w3.org/2000/svg"><g><g><g><g><path d="m504.5 24.788v462.443c0 5.514-4.475 9.989-9.989 9.989h-462.443c-8.901 0-13.357-10.765-7.057-17.055l462.434-462.434c6.29-6.3 17.055-1.844 17.055 7.057z" fill="#e8e6ed"/><path d="m504.5 24.788v462.443c0 5.514-4.475 9.989-9.989 9.989h-332.388c222.408-125.638 284.824-360.849 301.336-455.503l23.986-23.986c6.29-6.3 17.055-1.844 17.055 7.057z" fill="#d1d0d8"/><path d="m78.887 426.284v70.936h-46.816c-8.901 0-13.359-10.762-7.065-17.056z" fill="#22d0ff"/><path d="m220.754 284.413v212.807h-70.93v-141.868z" fill="#22d0ff"/><path d="m162.123 497.22c20.928-11.823 40.44-24.617 58.63-38.168v38.168z" fill="#06b9ff"/><path d="m362.632 142.543v354.676h-70.939v-283.747z" fill="#22d0ff"/><path d="m291.693 396.063c27.714-29.16 51.146-59.99 70.939-91.042v192.199h-70.939z" fill="#06b9ff"/><path d="m504.5 24.788v462.443c0 5.514-4.475 9.989-9.989 9.989h-60.95v-425.615l29.898-29.888 23.986-23.986c6.29-6.3 17.055-1.844 17.055 7.057z" fill="#22d0ff"/><path d="m504.5 24.788v462.443c0 5.514-4.475 9.989-9.989 9.989h-60.95v-340.397c16.017-46.409 24.986-86.965 29.898-115.106l23.986-23.986c6.29-6.3 17.055-1.844 17.055 7.057z" fill="#06b9ff"/></g></g><g><path d="m209.387 40.045v151.359c0 13.957-11.305 25.262-25.262 25.262h-151.36c-13.957 0-25.262-11.305-25.262-25.262v-151.359c0-13.957 11.305-25.262 25.262-25.262h151.359c13.958 0 25.263 11.305 25.263 25.262z" fill="#26e4ff"/><path d="m209.39 40.045v151.359c0 13.957-11.305 25.262-25.262 25.262h-121.372c114.181-38.97 106.681-153.847 102.538-201.883h18.833c13.958 0 25.263 11.305 25.263 25.262z" fill="#22d0ff"/></g></g><g><path d="m504.5 307.232c4.142 0 7.5-3.357 7.5-7.5v-274.941c0-7.1-4.238-13.442-10.797-16.159-6.561-2.715-14.042-1.228-19.062 3.791l-462.437 462.437c-5.021 5.021-6.509 12.503-3.792 19.062 2.717 6.56 9.06 10.798 16.159 10.798h462.438c9.645 0 17.491-7.847 17.491-17.491v-152.973c0-4.143-3.358-7.5-7.5-7.5s-7.5 3.357-7.5 7.5v152.973c0 1.374-1.117 2.491-2.491 2.491h-53.445v-415.007l51.683-51.683c1.025-1.024 2.141-.778 2.715-.54.574.237 1.538.853 1.538 2.301v274.941c0 4.143 3.358 7.5 7.5 7.5zm-283.742 129.963c-4.142 0-7.5 3.357-7.5 7.5v45.024h-55.936v-131.263l55.936-55.936v105.353c0 4.143 3.358 7.5 7.5 7.5s7.5-3.357 7.5-7.5v-120.353l55.936-55.936v258.136h-55.936v-45.024c0-4.143-3.358-7.501-7.5-7.501zm-78.436 52.525h-55.935v-60.329l55.936-55.936v116.265zm156.871-273.136 55.936-55.936v329.072h-55.936zm-269.423 271.598c-.238-.574-.484-1.69.54-2.714l41.077-41.077v45.329h-39.316c-1.447 0-2.063-.964-2.301-1.538zm396.294 1.538h-55.936v-344.071l55.936-55.936z"/><path d="m107.389 224.17c4.142 0 7.5-3.357 7.5-7.5s-3.358-7.5-7.5-7.5h-74.627c-9.794 0-17.762-7.969-17.762-17.763v-151.364c0-9.794 7.968-17.763 17.762-17.763h151.365c9.794 0 17.762 7.969 17.762 17.763v151.364c0 9.794-7.968 17.763-17.762 17.763h-42.216c-4.142 0-7.5 3.357-7.5 7.5s3.358 7.5 7.5 7.5h42.216c18.065 0 32.762-14.697 32.762-32.763v-151.364c0-18.065-14.697-32.763-32.762-32.763h-151.365c-18.065 0-32.762 14.698-32.762 32.763v151.364c0 18.065 14.697 32.763 32.762 32.763z"/><path d="m79.635 160.687c4.142 0 7.5-3.357 7.5-7.5v-67.956c0-4.143-3.358-7.5-7.5-7.5s-7.5 3.357-7.5 7.5v37.516h-19.794l11.775-17.898c2.276-3.46 1.317-8.111-2.144-10.388-3.459-2.275-8.11-1.317-10.388 2.144l-19.421 29.521c-1.516 2.304-1.645 5.254-.336 7.682 1.309 2.427 3.844 3.94 6.602 3.94h33.706v15.439c0 4.142 3.358 7.5 7.5 7.5z"/><path d="m128.661 98.053c4.439 0 8.72 1.307 12.378 3.777 3.434 2.317 8.095 1.416 10.413-2.017 2.319-3.433 1.416-8.095-2.017-10.413-6.148-4.152-13.332-6.348-20.774-6.348-20.482 0-37.146 16.664-37.146 37.146s16.664 37.146 37.146 37.146c20.483 0 37.147-16.664 37.147-37.146 0-4.143-3.358-7.5-7.5-7.5h-29.647c-4.142 0-7.5 3.357-7.5 7.5s3.358 7.5 7.5 7.5h20.84c-3.08 8.532-11.259 14.646-20.84 14.646-12.211 0-22.146-9.935-22.146-22.146s9.934-22.145 22.146-22.145z"/><path d="m172.962 64.764c-4.142 0-7.5 3.357-7.5 7.5v.997h-.998c-4.142 0-7.5 3.357-7.5 7.5s3.358 7.5 7.5 7.5h.998v.998c0 4.143 3.358 7.5 7.5 7.5s7.5-3.357 7.5-7.5v-.998h.998c4.142 0 7.5-3.357 7.5-7.5s-3.358-7.5-7.5-7.5h-.998v-.997c0-4.143-3.358-7.5-7.5-7.5z"/></g></g></svg>