<?xml version="1.0" encoding="UTF-8" standalone="no"?>
<svg
   id="Capa_1"
   enable-background="new 0 0 512 512"
   height="512"
   viewBox="0 0 512 512"
   width="512"
   version="1.1"
   sodipodi:docname="signal.svg"
   xmlns:inkscape="http://www.inkscape.org/namespaces/inkscape"
   xmlns:sodipodi="http://sodipodi.sourceforge.net/DTD/sodipodi-0.dtd"
   xmlns="http://www.w3.org/2000/svg"
   xmlns:svg="http://www.w3.org/2000/svg">
  <defs
     id="defs2196" />
  <sodipodi:namedview
     id="namedview2194"
     pagecolor="#505050"
     bordercolor="#eeeeee"
     borderopacity="1"
     inkscape:showpageshadow="0"
     inkscape:pageopacity="0"
     inkscape:pagecheckerboard="0"
     inkscape:deskcolor="#505050"
     showgrid="false" />
  <g
     id="g2191">
    <g
       id="g2177">
      <g
         id="g2169">
        <g
           id="g2167">
          <path
             d="m 504.5,24.788 v 462.443 c 0,5.514 -4.475,9.989 -9.989,9.989 H 32.068 c -8.901,0 -13.357,-10.765 -7.057,-17.055 L 487.445,17.731 c 6.29,-6.3 17.055,-1.844 17.055,7.057 z"
             fill="#e8e6ed"
             id="path2149" />
          <path
             d="m 504.5,24.788 v 462.443 c 0,5.514 -4.475,9.989 -9.989,9.989 H 162.123 C 384.531,371.582 446.947,136.371 463.459,41.717 l 23.986,-23.986 c 6.29,-6.3 17.055,-1.844 17.055,7.057 z"
             fill="#d1d0d8"
             id="path2151" />
          <path
             d="M 78.887,426.284 V 497.22 H 32.071 c -8.901,0 -13.359,-10.762 -7.065,-17.056 z"
             fill="#22d0ff"
             id="path2153" />
          <path
             d="M 220.754,284.413 V 497.22 h -70.93 V 355.352 Z"
             fill="#22d0ff"
             id="path2155" />
          <path
             d="m 162.123,497.22 c 20.928,-11.823 40.44,-24.617 58.63,-38.168 v 38.168 z"
             fill="#06b9ff"
             id="path2157" />
          <path
             d="M 362.632,142.543 V 497.219 H 291.693 V 213.472 Z"
             fill="#22d0ff"
             id="path2159" />
          <path
             d="m 291.693,396.063 c 27.714,-29.16 51.146,-59.99 70.939,-91.042 V 497.22 h -70.939 z"
             fill="#06b9ff"
             id="path2161" />
          <path
             d="m 504.5,24.788 v 462.443 c 0,5.514 -4.475,9.989 -9.989,9.989 h -60.95 V 71.605 l 29.898,-29.888 23.986,-23.986 c 6.29,-6.3 17.055,-1.844 17.055,7.057 z"
             fill="#22d0ff"
             id="path2163" />
          <path
             d="m 504.5,24.788 v 462.443 c 0,5.514 -4.475,9.989 -9.989,9.989 h -60.95 V 156.823 c 16.017,-46.409 24.986,-86.965 29.898,-115.106 l 23.986,-23.986 c 6.29,-6.3 17.055,-1.844 17.055,7.057 z"
             fill="#06b9ff"
             id="path2165" />
        </g>
      </g>
      <g
         id="g2175" />
    </g>
    <g
       id="g2189">
      <path
         d="m 504.5,307.232 c 4.142,0 7.5,-3.357 7.5,-7.5 V 24.791 c 0,-7.1 -4.238,-13.442 -10.797,-16.159 -6.561,-2.715 -14.042,-1.228 -19.062,3.791 L 19.704,474.86 c -5.021,5.021 -6.509,12.503 -3.792,19.062 2.717,6.56 9.06,10.798 16.159,10.798 h 462.438 c 9.645,0 17.491,-7.847 17.491,-17.491 V 334.256 c 0,-4.143 -3.358,-7.5 -7.5,-7.5 -4.142,0 -7.5,3.357 -7.5,7.5 v 152.973 c 0,1.374 -1.117,2.491 -2.491,2.491 H 441.064 V 74.713 L 492.747,23.03 c 1.025,-1.024 2.141,-0.778 2.715,-0.54 0.574,0.237 1.538,0.853 1.538,2.301 v 274.941 c 0,4.143 3.358,7.5 7.5,7.5 z M 220.758,437.195 c -4.142,0 -7.5,3.357 -7.5,7.5 v 45.024 H 157.322 V 358.456 l 55.936,-55.936 v 105.353 c 0,4.143 3.358,7.5 7.5,7.5 4.142,0 7.5,-3.357 7.5,-7.5 V 287.52 l 55.936,-55.936 V 489.72 h -55.936 v -45.024 c 0,-4.143 -3.358,-7.501 -7.5,-7.501 z M 142.322,489.72 H 86.387 v -60.329 l 55.936,-55.936 V 489.72 Z M 299.193,216.584 355.129,160.648 V 489.72 H 299.193 Z M 29.77,488.182 c -0.238,-0.574 -0.484,-1.69 0.54,-2.714 L 71.387,444.391 V 489.72 H 32.071 c -1.447,0 -2.063,-0.964 -2.301,-1.538 z m 396.294,1.538 H 370.128 V 145.649 l 55.936,-55.936 z"
         id="path2179" />
    </g>
  </g>
</svg>
